<svg width="38" height="38" viewBox="0 0 38 38" fill="none" xmlns="http://www.w3.org/2000/svg">
<circle cx="19" cy="19" r="19" fill="white"/>
<path d="M22.2704 23.6846C22.661 24.0752 23.2941 24.0752 23.6846 23.6846C24.0752 23.2941 24.0752 22.661 23.6846 22.2704L22.2704 23.6846ZM15.7296 14.3154C15.3391 13.9248 14.7059 13.9248 14.3154 14.3154C13.9248 14.7059 13.9248 15.3391 14.3154 15.7296L15.7296 14.3154ZM23.6846 22.2704L19.7071 18.2929L18.2929 19.7071L22.2704 23.6846L23.6846 22.2704ZM19.7071 18.2929L15.7296 14.3154L14.3154 15.7296L18.2929 19.7071L19.7071 18.2929Z" fill="#1B2767"/>
<path d="M14.3154 22.2704C13.9248 22.661 13.9248 23.2941 14.3154 23.6846C14.7059 24.0752 15.339 24.0752 15.7296 23.6846L14.3154 22.2704ZM23.6846 15.7296C24.0752 15.3391 24.0752 14.7059 23.6846 14.3154C23.2941 13.9248 22.6609 13.9248 22.2704 14.3154L23.6846 15.7296ZM15.7296 23.6846L19.7071 19.7071L18.2929 18.2929L14.3154 22.2704L15.7296 23.6846ZM19.7071 19.7071L23.6846 15.7296L22.2704 14.3154L18.2929 18.2929L19.7071 19.7071Z" fill="#1B2767"/>
</svg>
